{
	"asset": {
		"generator": "Unity 2020.3.11f1",
		"extras": {
			"exporterVersion" : "2.2.1"
		},
		"version": "2.0"
	},
	"accessors": [
		{
			"bufferView": 3,
			"byteOffset": 0,
			"componentType": 5126,
			"count": 597,
			"max": [ 23.00245, 1.473079, 1.108112 ],
			"min": [ 21.22387, -0.04819166, -1.108112 ],
			"type": "VEC3"
		},
		{
			"bufferView": 3,
			"byteOffset": 7164,
			"componentType": 5126,
			"count": 597,
			"max": [ 1, 1, 1 ],
			"min": [ -1, -0.9460265, -1 ],
			"type": "VEC3"
		},
		{
			"bufferView": 2,
			"byteOffset": 0,
			"componentType": 5126,
			"count": 597,
			"max": [ 1.887847, 0.9291458 ],
			"min": [ -0.8878474, 0.3354278 ],
			"type": "VEC2"
		},
		{
			"bufferView": 4,
			"byteOffset": 0,
			"componentType": 5126,
			"count": 597,
			"max": [ 1, 1, 1, 1 ],
			"min": [ -1, -1, -1, 1 ],
			"type": "VEC4"
		},
		{
			"bufferView": 0,
			"byteOffset": 0,
			"componentType": 5123,
			"count": 1356,
			"max": [ 516 ],
			"min": [ 0 ],
			"type": "SCALAR"
		},
		{
			"bufferView": 0,
			"byteOffset": 2712,
			"componentType": 5123,
			"count": 144,
			"max": [ 596 ],
			"min": [ 517 ],
			"type": "SCALAR"
		},
		{
			"bufferView": 1,
			"byteOffset": 0,
			"componentType": 5126,
			"count": 130,
			"max": [ 4.3 ],
			"min": [ 0 ],
			"type": "SCALAR"
		},
		{
			"bufferView": 5,
			"byteOffset": 0,
			"componentType": 5126,
			"count": 130,
			"max": [ 22.12891, 3.046413, 0.01807618 ],
			"min": [ 22.12891, 2.927692, 0.01807618 ],
			"type": "VEC3"
		},
		{
			"bufferView": 6,
			"byteOffset": 0,
			"componentType": 5126,
			"count": 130,
			"max": [ 0, 0, 0, -0.9133642 ],
			"min": [ 0, -0.4071663, 0, -1 ],
			"type": "VEC4"
		},
		{
			"bufferView": 5,
			"byteOffset": 1560,
			"componentType": 5126,
			"count": 130,
			"max": [ 1, 1, 1 ],
			"min": [ 1, 1, 1 ],
			"type": "VEC3"
		},
		{
			"bufferView": 1,
			"byteOffset": 520,
			"componentType": 5126,
			"count": 130,
			"max": [ 4.3 ],
			"min": [ 0 ],
			"type": "SCALAR"
		},
		{
			"bufferView": 5,
			"byteOffset": 3120,
			"componentType": 5126,
			"count": 130,
			"max": [ 22.12436, 2.750895, -0.3378927 ],
			"min": [ 22.12436, 2.366826, -0.3378927 ],
			"type": "VEC3"
		},
		{
			"bufferView": 6,
			"byteOffset": 2080,
			"componentType": 5126,
			"count": 130,
			"max": [ 0, 0, 0, -1 ],
			"min": [ 0, 0, 0, -1 ],
			"type": "VEC4"
		},
		{
			"bufferView": 5,
			"byteOffset": 4680,
			"componentType": 5126,
			"count": 130,
			"max": [ 1, 1, 1 ],
			"min": [ 1, 1, 1 ],
			"type": "VEC3"
		},
		{
			"bufferView": 1,
			"byteOffset": 1040,
			"componentType": 5126,
			"count": 130,
			"max": [ 4.3 ],
			"min": [ 0 ],
			"type": "SCALAR"
		},
		{
			"bufferView": 5,
			"byteOffset": 6240,
			"componentType": 5126,
			"count": 130,
			"max": [ 22.11316, 1.779037, 1.727413E-07 ],
			"min": [ 22.11316, 1.658528, 1.727413E-07 ],
			"type": "VEC3"
		},
		{
			"bufferView": 6,
			"byteOffset": 4160,
			"componentType": 5126,
			"count": 130,
			"max": [ 0, 0, 0, -1 ],
			"min": [ 0, 0, 0, -1 ],
			"type": "VEC4"
		},
		{
			"bufferView": 5,
			"byteOffset": 7800,
			"componentType": 5126,
			"count": 130,
			"max": [ 0.8, 1.233456, 0.8 ],
			"min": [ 0.8, 0.541406, 0.8 ],
			"type": "VEC3"
		},
		{
			"bufferView": 1,
			"byteOffset": 1560,
			"componentType": 5126,
			"count": 130,
			"max": [ 4.3 ],
			"min": [ 0 ],
			"type": "SCALAR"
		},
		{
			"bufferView": 5,
			"byteOffset": 9360,
			"componentType": 5126,
			"count": 130,
			"max": [ 22.11316, 1.653921, 1.727413E-07 ],
			"min": [ 22.11316, 1.570412, 1.727413E-07 ],
			"type": "VEC3"
		},
		{
			"bufferView": 6,
			"byteOffset": 6240,
			"componentType": 5126,
			"count": 130,
			"max": [ 0, 0, 0, -1 ],
			"min": [ 0, 0, 0, -1 ],
			"type": "VEC4"
		},
		{
			"bufferView": 5,
			"byteOffset": 10920,
			"componentType": 5126,
			"count": 130,
			"max": [ 1, 1.232671, 1 ],
			"min": [ 1, 0.5790588, 1 ],
			"type": "VEC3"
		},
		{
			"bufferView": 1,
			"byteOffset": 2080,
			"componentType": 5126,
			"count": 130,
			"max": [ 4.3 ],
			"min": [ 0 ],
			"type": "SCALAR"
		},
		{
			"bufferView": 5,
			"byteOffset": 12480,
			"componentType": 5126,
			"count": 130,
			"max": [ 22.11316, 1.921059, 1.727413E-07 ],
			"min": [ 22.11316, 1.726564, 1.727413E-07 ],
			"type": "VEC3"
		},
		{
			"bufferView": 6,
			"byteOffset": 8320,
			"componentType": 5126,
			"count": 130,
			"max": [ 0, 0, 0, -1 ],
			"min": [ 0, 0, 0, -1 ],
			"type": "VEC4"
		},
		{
			"bufferView": 5,
			"byteOffset": 14040,
			"componentType": 5126,
			"count": 130,
			"max": [ 0.6, 1.234205, 0.6 ],
			"min": [ 0.6, 0.4981078, 0.6 ],
			"type": "VEC3"
		},
		{
			"bufferView": 1,
			"byteOffset": 2600,
			"componentType": 5126,
			"count": 130,
			"max": [ 4.3 ],
			"min": [ 0 ],
			"type": "SCALAR"
		},
		{
			"bufferView": 5,
			"byteOffset": 15600,
			"componentType": 5126,
			"count": 130,
			"max": [ 22.11316, 1.473079, 1.525879E-07 ],
			"min": [ 22.11316, 1.473079, 1.525879E-07 ],
			"type": "VEC3"
		},
		{
			"bufferView": 6,
			"byteOffset": 10400,
			"componentType": 5126,
			"count": 130,
			"max": [ 0, 0, 0, -1 ],
			"min": [ 0, 0, 0, -1 ],
			"type": "VEC4"
		},
		{
			"bufferView": 5,
			"byteOffset": 17160,
			"componentType": 5126,
			"count": 130,
			"max": [ 1, 1.151552, 1 ],
			"min": [ 1, 0.5646508, 1 ],
			"type": "VEC3"
		},
		{
			"bufferView": 1,
			"byteOffset": 3120,
			"componentType": 5126,
			"count": 130,
			"max": [ 4.3 ],
			"min": [ 0 ],
			"type": "SCALAR"
		},
		{
			"bufferView": 5,
			"byteOffset": 18720,
			"componentType": 5126,
			"count": 130,
			"max": [ 22.11316, 2.985891, 0 ],
			"min": [ 22.11316, 2.985891, 0 ],
			"type": "VEC3"
		},
		{
			"bufferView": 6,
			"byteOffset": 12480,
			"componentType": 5126,
			"count": 130,
			"max": [ 0, 0, 0, -0.9580616 ],
			"min": [ -0.04857475, -0.2722017, -0.08522645, -1 ],
			"type": "VEC4"
		},
		{
			"bufferView": 5,
			"byteOffset": 20280,
			"componentType": 5126,
			"count": 130,
			"max": [ 1, 1, 1 ],
			"min": [ 1, 1, 1 ],
			"type": "VEC3"
		},
		{
			"bufferView": 3,
			"byteOffset": 14328,
			"componentType": 5126,
			"count": 1344,
			"max": [ 1.640641, 2.138426, 3.208289 ],
			"min": [ -1.648939, -2.138426, -3.220787 ],
			"type": "VEC3"
		},
		{
			"bufferView": 3,
			"byteOffset": 30456,
			"componentType": 5126,
			"count": 1344,
			"max": [ 0.9716297, 0.9970086, 0.9985139 ],
			"min": [ -0.9716294, -0.9970086, -0.9985139 ],
			"type": "VEC3"
		},
		{
			"bufferView": 2,
			"byteOffset": 4776,
			"componentType": 5126,
			"count": 1344,
			"max": [ 0.8407434, 1.013122 ],
			"min": [ 0.161577, 0.6274192 ],
			"type": "VEC2"
		},
		{
			"bufferView": 4,
			"byteOffset": 9552,
			"componentType": 5126,
			"count": 1344,
			"max": [ 0.9977759, 0.8026255, 0.9988285, 1 ],
			"min": [ -0.9973104, -0.9917208, -0.9990628, -1 ],
			"type": "VEC4"
		},
		{
			"bufferView": 0,
			"byteOffset": 3000,
			"componentType": 5123,
			"count": 6048,
			"max": [ 1343 ],
			"min": [ 0 ],
			"type": "SCALAR"
		},
		{
			"bufferView": 3,
			"byteOffset": 46584,
			"componentType": 5126,
			"count": 80,
			"max": [ 0.8795971, 0.3066333, 0.8795968 ],
			"min": [ -0.8795971, 0, -0.8795968 ],
			"type": "VEC3"
		},
		{
			"bufferView": 3,
			"byteOffset": 47544,
			"componentType": 5126,
			"count": 80,
			"max": [ 0.987689, 0, 0.9876884 ],
			"min": [ -0.987689, 0, -0.9876882 ],
			"type": "VEC3"
		},
		{
			"bufferView": 2,
			"byteOffset": 15528,
			"componentType": 5126,
			"count": 80,
			"max": [ 0.9973503, 0.6646034 ],
			"min": [ 0.7779136, 0.6549494 ],
			"type": "VEC2"
		},
		{
			"bufferView": 4,
			"byteOffset": 31056,
			"componentType": 5126,
			"count": 80,
			"max": [ 0, 1, 0, 1 ],
			"min": [ 0, 1, 0, 1 ],
			"type": "VEC4"
		},
		{
			"bufferView": 0,
			"byteOffset": 15096,
			"componentType": 5123,
			"count": 120,
			"max": [ 79 ],
			"min": [ 0 ],
			"type": "SCALAR"
		},
		{
			"bufferView": 3,
			"byteOffset": 48504,
			"componentType": 5126,
			"count": 48,
			"max": [ 0.6954539, 0.02250553, 0.6954567 ],
			"min": [ -0.6954542, -0.02250545, -0.695457 ],
			"type": "VEC3"
		},
		{
			"bufferView": 3,
			"byteOffset": 49080,
			"componentType": 5126,
			"count": 48,
			"max": [ 1, 0, 1 ],
			"min": [ -1, 0, -1 ],
			"type": "VEC3"
		},
		{
			"bufferView": 2,
			"byteOffset": 16168,
			"componentType": 5126,
			"count": 48,
			"max": [ 0.5871521, 0.9070226 ],
			"min": [ -0.4088639, 0.9043899 ],
			"type": "VEC2"
		},
		{
			"bufferView": 4,
			"byteOffset": 32336,
			"componentType": 5126,
			"count": 48,
			"max": [ 1, 0, 1, 1 ],
			"min": [ -0.809018, 0, -1, 1 ],
			"type": "VEC4"
		},
		{
			"bufferView": 0,
			"byteOffset": 15336,
			"componentType": 5123,
			"count": 120,
			"max": [ 47 ],
			"min": [ 0 ],
			"type": "SCALAR"
		},
		{
			"bufferView": 3,
			"byteOffset": 49656,
			"componentType": 5126,
			"count": 48,
			"max": [ 0.6954539, 0.02250553, 0.6954567 ],
			"min": [ -0.6954542, -0.02250545, -0.695457 ],
			"type": "VEC3"
		},
		{
			"bufferView": 3,
			"byteOffset": 50232,
			"componentType": 5126,
			"count": 48,
			"max": [ 1, 0, 1 ],
			"min": [ -1, 0, -1 ],
			"type": "VEC3"
		},
		{
			"bufferView": 2,
			"byteOffset": 16552,
			"componentType": 5126,
			"count": 48,
			"max": [ 0.5871521, 0.9070226 ],
			"min": [ -0.4088639, 0.9043899 ],
			"type": "VEC2"
		},
		{
			"bufferView": 4,
			"byteOffset": 33104,
			"componentType": 5126,
			"count": 48,
			"max": [ 1, 0, 1, 1 ],
			"min": [ -0.809018, 0, -1, 1 ],
			"type": "VEC4"
		},
		{
			"bufferView": 0,
			"byteOffset": 15576,
			"componentType": 5123,
			"count": 120,
			"max": [ 47 ],
			"min": [ 0 ],
			"type": "SCALAR"
		},
		{
			"bufferView": 3,
			"byteOffset": 50808,
			"componentType": 5126,
			"count": 48,
			"max": [ 0.6954539, 0.02250553, 0.6954567 ],
			"min": [ -0.6954542, -0.02250545, -0.695457 ],
			"type": "VEC3"
		},
		{
			"bufferView": 3,
			"byteOffset": 51384,
			"componentType": 5126,
			"count": 48,
			"max": [ 1, 0, 1 ],
			"min": [ -1, 0, -1 ],
			"type": "VEC3"
		},
		{
			"bufferView": 2,
			"byteOffset": 16936,
			"componentType": 5126,
			"count": 48,
			"max": [ 0.5871521, 0.9070226 ],
			"min": [ -0.4088639, 0.9043899 ],
			"type": "VEC2"
		},
		{
			"bufferView": 4,
			"byteOffset": 33872,
			"componentType": 5126,
			"count": 48,
			"max": [ 1, 0, 1, 1 ],
			"min": [ -0.809018, 0, -1, 1 ],
			"type": "VEC4"
		},
		{
			"bufferView": 0,
			"byteOffset": 15816,
			"componentType": 5123,
			"count": 120,
			"max": [ 47 ],
			"min": [ 0 ],
			"type": "SCALAR"
		},
		{
			"bufferView": 3,
			"byteOffset": 51960,
			"componentType": 5126,
			"count": 24,
			"max": [ 0.9592163, 0.959216, 1.091656 ],
			"min": [ -0.9592163, -0.959216, -1.091656 ],
			"type": "VEC3"
		},
		{
			"bufferView": 3,
			"byteOffset": 52248,
			"componentType": 5126,
			"count": 24,
			"max": [ 0.8535534, 0.8535535, 0.7071064 ],
			"min": [ -0.8535533, -0.8535535, -0.7071067 ],
			"type": "VEC3"
		},
		{
			"bufferView": 2,
			"byteOffset": 17320,
			"componentType": 5126,
			"count": 24,
			"max": [ -0.01647381, 0.9913701 ],
			"min": [ -0.9933464, 0.01449789 ],
			"type": "VEC2"
		},
		{
			"bufferView": 4,
			"byteOffset": 34640,
			"componentType": 5126,
			"count": 24,
			"max": [ 0.8535532, 0.5, 0.707107, 1 ],
			"min": [ -0.8535531, -0.1464468, -0.5000005, 1 ],
			"type": "VEC4"
		},
		{
			"bufferView": 0,
			"byteOffset": 16056,
			"componentType": 5123,
			"count": 36,
			"max": [ 23 ],
			"min": [ 0 ],
			"type": "SCALAR"
		},
		{
			"bufferView": 3,
			"byteOffset": 52536,
			"componentType": 5126,
			"count": 110,
			"max": [ 0.1941796, 0.4526116, 0.4500163 ],
			"min": [ -0.195271, -0.4526118, -0.4466114 ],
			"type": "VEC3"
		},
		{
			"bufferView": 3,
			"byteOffset": 53856,
			"componentType": 5126,
			"count": 110,
			"max": [ 0.9521832, 0.9980267, 0.9521809 ],
			"min": [ -0.9521835, -0.9980269, -0.9446719 ],
			"type": "VEC3"
		},
		{
			"bufferView": 2,
			"byteOffset": 17512,
			"componentType": 5126,
			"count": 110,
			"max": [ 0.9905076, 0.9914825 ],
			"min": [ 0.009492248, 0.008517534 ],
			"type": "VEC2"
		},
		{
			"bufferView": 4,
			"byteOffset": 35024,
			"componentType": 5126,
			"count": 110,
			"max": [ 0.2764795, 1, 0.9521835, 1 ],
			"min": [ -0.3055487, -0.9921144, -0.8615569, -1 ],
			"type": "VEC4"
		},
		{
			"bufferView": 0,
			"byteOffset": 16128,
			"componentType": 5123,
			"count": 300,
			"max": [ 109 ],
			"min": [ 0 ],
			"type": "SCALAR"
		}
	],
	"animations": [
		{
			"name": "PoapMachine_Art",
			"channels": [
				{
					"sampler": 0,
					"target": {
						"node": 8,
						"path": "translation"
					}
				},
				{
					"sampler": 1,
					"target": {
						"node": 8,
						"path": "rotation"
					}
				},
				{
					"sampler": 2,
					"target": {
						"node": 8,
						"path": "scale"
					}
				},
				{
					"sampler": 3,
					"target": {
						"node": 2,
						"path": "translation"
					}
				},
				{
					"sampler": 4,
					"target": {
						"node": 2,
						"path": "rotation"
					}
				},
				{
					"sampler": 5,
					"target": {
						"node": 2,
						"path": "scale"
					}
				},
				{
					"sampler": 6,
					"target": {
						"node": 6,
						"path": "translation"
					}
				},
				{
					"sampler": 7,
					"target": {
						"node": 6,
						"path": "rotation"
					}
				},
				{
					"sampler": 8,
					"target": {
						"node": 6,
						"path": "scale"
					}
				},
				{
					"sampler": 9,
					"target": {
						"node": 5,
						"path": "translation"
					}
				},
				{
					"sampler": 10,
					"target": {
						"node": 5,
						"path": "rotation"
					}
				},
				{
					"sampler": 11,
					"target": {
						"node": 5,
						"path": "scale"
					}
				},
				{
					"sampler": 12,
					"target": {
						"node": 4,
						"path": "translation"
					}
				},
				{
					"sampler": 13,
					"target": {
						"node": 4,
						"path": "rotation"
					}
				},
				{
					"sampler": 14,
					"target": {
						"node": 4,
						"path": "scale"
					}
				},
				{
					"sampler": 15,
					"target": {
						"node": 3,
						"path": "translation"
					}
				},
				{
					"sampler": 16,
					"target": {
						"node": 3,
						"path": "rotation"
					}
				},
				{
					"sampler": 17,
					"target": {
						"node": 3,
						"path": "scale"
					}
				},
				{
					"sampler": 18,
					"target": {
						"node": 7,
						"path": "translation"
					}
				},
				{
					"sampler": 19,
					"target": {
						"node": 7,
						"path": "rotation"
					}
				},
				{
					"sampler": 20,
					"target": {
						"node": 7,
						"path": "scale"
					}
				}
			],
			"samplers": [
				{
					"input": 6,
					"interpolation": "LINEAR",
					"output": 7
				},
				{
					"input": 6,
					"interpolation": "LINEAR",
					"output": 8
				},
				{
					"input": 6,
					"interpolation": "LINEAR",
					"output": 9
				},
				{
					"input": 10,
					"interpolation": "LINEAR",
					"output": 11
				},
				{
					"input": 10,
					"interpolation": "LINEAR",
					"output": 12
				},
				{
					"input": 10,
					"interpolation": "LINEAR",
					"output": 13
				},
				{
					"input": 14,
					"interpolation": "LINEAR",
					"output": 15
				},
				{
					"input": 14,
					"interpolation": "LINEAR",
					"output": 16
				},
				{
					"input": 14,
					"interpolation": "LINEAR",
					"output": 17
				},
				{
					"input": 18,
					"interpolation": "LINEAR",
					"output": 19
				},
				{
					"input": 18,
					"interpolation": "LINEAR",
					"output": 20
				},
				{
					"input": 18,
					"interpolation": "LINEAR",
					"output": 21
				},
				{
					"input": 22,
					"interpolation": "LINEAR",
					"output": 23
				},
				{
					"input": 22,
					"interpolation": "LINEAR",
					"output": 24
				},
				{
					"input": 22,
					"interpolation": "LINEAR",
					"output": 25
				},
				{
					"input": 26,
					"interpolation": "LINEAR",
					"output": 27
				},
				{
					"input": 26,
					"interpolation": "LINEAR",
					"output": 28
				},
				{
					"input": 26,
					"interpolation": "LINEAR",
					"output": 29
				},
				{
					"input": 30,
					"interpolation": "LINEAR",
					"output": 31
				},
				{
					"input": 30,
					"interpolation": "LINEAR",
					"output": 32
				},
				{
					"input": 30,
					"interpolation": "LINEAR",
					"output": 33
				}
			]
		}
	],
	"buffers": [
		{
			"byteLength": 167120,
			"uri": "entity15392.bin"
		}
	],
	"bufferViews": [
		{
			"buffer": 0,
			"byteLength": 16728,
			"target": 34963,
			"byteOffset": 113992
		},
		{
			"buffer": 0,
			"byteLength": 3640,
			"byteOffset": 0
		},
		{
			"buffer": 0,
			"byteLength": 18392,
			"target": 34962,
			"byteStride": 8,
			"byteOffset": 3640
		},
		{
			"buffer": 0,
			"byteLength": 55176,
			"target": 34962,
			"byteStride": 12,
			"byteOffset": 22032
		},
		{
			"buffer": 0,
			"byteLength": 36784,
			"target": 34962,
			"byteStride": 16,
			"byteOffset": 77208
		},
		{
			"buffer": 0,
			"byteLength": 21840,
			"byteStride": 12,
			"byteOffset": 130720
		},
		{
			"buffer": 0,
			"byteLength": 14560,
			"byteStride": 16,
			"byteOffset": 152560
		}
	],
	"images": [
		{
			"uri": "Assets/Visuals/Materials/Textures/Trim_2_2D_View.png"
		},
		{
			"uri": "Assets/Visuals/Materials/Textures/Trim_2_Emissive.jpg"
		},
		{
			"uri": "Assets/Visuals/Materials/Textures/TrimFades_Albedo.png"
		},
		{
			"uri": "Assets/Visuals/Materials/Textures/TrimLights_Albedo.png"
		},
		{
			"uri": "Assets/Visuals/Materials/Textures/TrimLights_Emissive.jpg"
		},
		{
			"uri": "Assets/Visuals/Materials/Textures/Fade.png"
		},
		{
			"uri": "Assets/Visuals/Materials/Textures/koala_poap_Albedo.png"
		}
	],
	"materials": [
		{
			"pbrMetallicRoughness": {
				"baseColorTexture" : {
					"index" : 0,
					"texCoord" : 0
				},
				"baseColorFactor": [0.3349057, 0.9425228, 1, 1],
				"metallicFactor": 0,
				"roughnessFactor": 0.5
			},
			"emissiveTexture" : {
				"index" : 1,
				"texCoord" : 0
			},
			"emissiveFactor": [0.8867924, 0.4643111, 0.5675842],
			"doubleSided": false,
			"name": "Trim_02_Mat"
		},
		{
			"pbrMetallicRoughness": {
				"baseColorFactor": [1, 0.6179245, 0.9268367, 1],
				"metallicFactor": 0,
				"roughnessFactor": 0.5
			},
			"emissiveFactor": [0.5019608, 0, 0.4784313],
			"doubleSided": false,
			"name": "Outline Emisive Mat"
		},
		{
			"pbrMetallicRoughness": {
				"baseColorTexture" : {
					"index" : 2,
					"texCoord" : 0
				},
				"baseColorFactor": [0.9716981, 0.8387771, 0.9586566, 1],
				"metallicFactor": 0,
				"roughnessFactor": 1
			},
			"emissiveFactor": [0.2452829, 0.2452829, 0.2452829],
			"doubleSided": false,
			"name": "TrimFade_Emissive_Mat"
		},
		{
			"pbrMetallicRoughness": {
				"baseColorTexture" : {
					"index" : 3,
					"texCoord" : 0
				},
				"baseColorFactor": [1, 1, 1, 1],
				"metallicFactor": 0,
				"roughnessFactor": 0.5
			},
			"alphaMode": "BLEND",
			"alphaCutoff": 0.5,
			"emissiveTexture" : {
				"index" : 4,
				"texCoord" : 0
			},
			"emissiveFactor": [0.8113207, 0.8113207, 0.8113207],
			"doubleSided": true,
			"name": "Lights_Em_OP_Mat"
		},
		{
			"pbrMetallicRoughness": {
				"baseColorTexture" : {
					"index" : 5,
					"texCoord" : 0
				},
				"baseColorFactor": [0.7924528, 0.7924528, 0.7924528, 1],
				"metallicFactor": 0,
				"roughnessFactor": 1
			},
			"alphaMode": "BLEND",
			"alphaCutoff": 0.5,
			"emissiveTexture" : {
				"index" : 5,
				"texCoord" : 0
			},
			"emissiveFactor": [1, 1, 1],
			"doubleSided": true,
			"name": "Fade"
		},
		{
			"pbrMetallicRoughness": {
				"baseColorTexture" : {
					"index" : 6,
					"texCoord" : 0
				},
				"baseColorFactor": [1, 1, 1, 1],
				"metallicFactor": 0,
				"roughnessFactor": 0.5
			},
			"emissiveFactor": [0, 0, 0],
			"doubleSided": false,
			"name": "Poap"
		}
	],
	"meshes": [
		{
			"name": "mesh_poapMachine_18810PoapMachine_Art",
			"primitives": [
				{
					"attributes": {
						"POSITION": 0,
						"NORMAL": 1,
						"TEXCOORD_0": 2,
						"TANGENT": 3
					},
					"indices": 4,
					"material": 0,
					"mode": 4
				},
				{
					"attributes": {
						"POSITION": 0,
						"NORMAL": 1,
						"TEXCOORD_0": 2,
						"TANGENT": 3
					},
					"indices": 5,
					"material": 1,
					"mode": 4
				}
			]
		},
		{
			"name": "mesh_cloudsPoap_18848cloudsPoap",
			"primitives": [
				{
					"attributes": {
						"POSITION": 34,
						"NORMAL": 35,
						"TEXCOORD_0": 36,
						"TANGENT": 37
					},
					"indices": 38,
					"material": 2,
					"mode": 4
				}
			]
		},
		{
			"name": "mesh_details_poap_Machine1_18832details_poap_Machine1",
			"primitives": [
				{
					"attributes": {
						"POSITION": 39,
						"NORMAL": 40,
						"TEXCOORD_0": 41,
						"TANGENT": 42
					},
					"indices": 43,
					"material": 3,
					"mode": 4
				}
			]
		},
		{
			"name": "mesh_details_poap_Machine2_18846details_poap_Machine2",
			"primitives": [
				{
					"attributes": {
						"POSITION": 44,
						"NORMAL": 45,
						"TEXCOORD_0": 46,
						"TANGENT": 47
					},
					"indices": 48,
					"material": 0,
					"mode": 4
				}
			]
		},
		{
			"name": "mesh_details_poap_Machine3_18836details_poap_Machine3",
			"primitives": [
				{
					"attributes": {
						"POSITION": 49,
						"NORMAL": 50,
						"TEXCOORD_0": 51,
						"TANGENT": 52
					},
					"indices": 53,
					"material": 0,
					"mode": 4
				}
			]
		},
		{
			"name": "mesh_details_poap_Machine4_18838details_poap_Machine4",
			"primitives": [
				{
					"attributes": {
						"POSITION": 54,
						"NORMAL": 55,
						"TEXCOORD_0": 56,
						"TANGENT": 57
					},
					"indices": 58,
					"material": 0,
					"mode": 4
				}
			]
		},
		{
			"name": "mesh_glass_18840glass",
			"primitives": [
				{
					"attributes": {
						"POSITION": 59,
						"NORMAL": 60,
						"TEXCOORD_0": 61,
						"TANGENT": 62
					},
					"indices": 63,
					"material": 4,
					"mode": 4
				}
			]
		},
		{
			"name": "mesh_Poap_MusicFestival_18842Poap_MusicFestival",
			"primitives": [
				{
					"attributes": {
						"POSITION": 64,
						"NORMAL": 65,
						"TEXCOORD_0": 66,
						"TANGENT": 67
					},
					"indices": 68,
					"material": 5,
					"mode": 4
				}
			]
		}
	],
	"nodes": [
		{
			"name": "UnityGlTF_root",
			"children": [
				1
			]
		},
		{
			"name": "node_PoapMachine_Art",
			"mesh": 0,
			"children": [
				2,
				3,
				4,
				5,
				6,
				7,
				8
			],
			"matrix": [1, 0, 0, 0, 0, 1, 0, 0, 0, 0, 1, 0, 0, 0, 0, 1]
		},
		{
			"name": "node_cloudsPoap",
			"mesh": 1,
			"translation": [ 22.12436, 2.750895, -0.3378927]
		},
		{
			"name": "node_details_poap_Machine1",
			"mesh": 2,
			"translation": [ 22.11316, 1.473079, 1.525879E-07]
		},
		{
			"name": "node_details_poap_Machine2",
			"mesh": 3,
			"translation": [ 22.11316, 1.726564, 1.727413E-07],
			"scale": [ 0.6, 0.6234899, 0.6]
		},
		{
			"name": "node_details_poap_Machine3",
			"mesh": 4,
			"translation": [ 22.11316, 1.576564, 1.727413E-07],
			"scale": [ 1, 0.6234899, 1]
		},
		{
			"name": "node_details_poap_Machine4",
			"mesh": 5,
			"translation": [ 22.11316, 1.660819, 1.727413E-07],
			"scale": [ 0.8, 0.6234899, 0.8]
		},
		{
			"name": "node_glass",
			"mesh": 6,
			"translation": [ 22.11316, 2.985891, 0]
		},
		{
			"name": "node_Poap_MusicFestival",
			"mesh": 7,
			"translation": [ 22.12891, 2.927692, 0.01807618]
		}
	],
	"samplers": [
		{
			"magFilter": 9729,
			"minFilter": 9985,
			"wrapS": 10497,
			"wrapT": 10497
		}
	],
	"scenes": [
		{
			"name":"defaultScene",
			"nodes": [
				0
			]
		}
	],
	"scene": 0,
	"textures": [
		{
			"sampler": 0,
			"source": 0
		},
		{
			"sampler": 0,
			"source": 1
		},
		{
			"sampler": 0,
			"source": 2
		},
		{
			"sampler": 0,
			"source": 3
		},
		{
			"sampler": 0,
			"source": 4
		},
		{
			"sampler": 0,
			"source": 5
		},
		{
			"sampler": 0,
			"source": 6
		}
	]
}