{
	"asset": {
		"generator": "Unity 2020.3.11f1",
		"extras": {
			"exporterVersion" : "2.2.1"
		},
		"version": "2.0"
	},
	"accessors": [
		{
			"bufferView": 2,
			"byteOffset": 0,
			"componentType": 5126,
			"count": 4132,
			"max": [ 30.229, 8.153832, 32.1627 ],
			"min": [ -30.229, -8.153832, -32.1627 ],
			"type": "VEC3"
		},
		{
			"bufferView": 2,
			"byteOffset": 49584,
			"componentType": 5126,
			"count": 4132,
			"max": [ 0.996622, 1, 0.9964551 ],
			"min": [ -0.9977958, -0.7466602, -0.9964551 ],
			"type": "VEC3"
		},
		{
			"bufferView": 1,
			"byteOffset": 0,
			"componentType": 5126,
			"count": 4132,
			"max": [ 0.991093, 0.9801981 ],
			"min": [ 0, 0 ],
			"type": "VEC2"
		},
		{
			"bufferView": 3,
			"byteOffset": 0,
			"componentType": 5126,
			"count": 4132,
			"max": [ 1, 0.9994956, 0.9996761, 1 ],
			"min": [ -0.9996897, -0.9999812, -0.9996761, -1 ],
			"type": "VEC4"
		},
		{
			"bufferView": 0,
			"byteOffset": 0,
			"componentType": 5123,
			"count": 6960,
			"max": [ 3299 ],
			"min": [ 0 ],
			"type": "SCALAR"
		},
		{
			"bufferView": 0,
			"byteOffset": 13920,
			"componentType": 5123,
			"count": 1296,
			"max": [ 4131 ],
			"min": [ 3300 ],
			"type": "SCALAR"
		}
	],
	"buffers": [
		{
			"byteLength": 214848,
			"uri": "entity52746.bin"
		}
	],
	"bufferViews": [
		{
			"buffer": 0,
			"byteLength": 16512,
			"target": 34963,
			"byteOffset": 198336
		},
		{
			"buffer": 0,
			"byteLength": 33056,
			"target": 34962,
			"byteStride": 8,
			"byteOffset": 0
		},
		{
			"buffer": 0,
			"byteLength": 99168,
			"target": 34962,
			"byteStride": 12,
			"byteOffset": 33056
		},
		{
			"buffer": 0,
			"byteLength": 66112,
			"target": 34962,
			"byteStride": 16,
			"byteOffset": 132224
		}
	],
	"images": [
		{
			"uri": "Assets/Visuals/Materials/Textures/Palm_Leaf1_Albedo.png"
		},
		{
			"uri": "Assets/Visuals/Materials/Textures/Palm_Leaf1_Em.jpg"
		}
	],
	"materials": [
		{
			"pbrMetallicRoughness": {
				"baseColorTexture" : {
					"index" : 0,
					"texCoord" : 0
				},
				"baseColorFactor": [0, 0.8415322, 1, 1],
				"metallicFactor": 0,
				"roughnessFactor": 0.5
			},
			"alphaMode": "MASK",
			"alphaCutoff": 0.5,
			"emissiveTexture" : {
				"index" : 1,
				"texCoord" : 0
			},
			"emissiveFactor": [0, 0.990566, 0.8820897],
			"doubleSided": true,
			"name": "Palm_Mat"
		},
		{
			"pbrMetallicRoughness": {
				"baseColorFactor": [0, 0.5748239, 0.6415094, 1],
				"metallicFactor": 0,
				"roughnessFactor": 0.5
			},
			"emissiveFactor": [0, 0.5288915, 0.6509434],
			"doubleSided": false,
			"name": "Blue_Emissive_Mat"
		}
	],
	"meshes": [
		{
			"name": "mesh_Palm_19952PalmBuildingInterior_Art",
			"primitives": [
				{
					"attributes": {
						"POSITION": 0,
						"NORMAL": 1,
						"TEXCOORD_0": 2,
						"TANGENT": 3
					},
					"indices": 4,
					"material": 0,
					"mode": 4
				},
				{
					"attributes": {
						"POSITION": 0,
						"NORMAL": 1,
						"TEXCOORD_0": 2,
						"TANGENT": 3
					},
					"indices": 5,
					"material": 1,
					"mode": 4
				}
			]
		}
	],
	"nodes": [
		{
			"name": "UnityGlTF_root",
			"children": [
				1
			]
		},
		{
			"name": "node_PalmBuildingInterior_Art",
			"mesh": 0,
			"matrix": [1, 0, 0, 0, 0, 1, 0, 0, 0, 0, 1, 0, 0, 0, 0, 1]
		}
	],
	"samplers": [
		{
			"magFilter": 9729,
			"minFilter": 9985,
			"wrapS": 10497,
			"wrapT": 10497
		}
	],
	"scenes": [
		{
			"name":"defaultScene",
			"nodes": [
				0
			]
		}
	],
	"scene": 0,
	"textures": [
		{
			"sampler": 0,
			"source": 0
		},
		{
			"sampler": 0,
			"source": 1
		}
	]
}